REM DIRINDEX 1\2\5,1\2\6,1\2\7,1\2\8,1\3\9,1\3\10,1\3\11,1\4\12,1\4\13,1\4\14,1\4\15,1\4\16
REM DIRNAME folder01,folder02,folder03,folder04,folder05,folder06,folder07,folder08,folder09,folder10,folder11,folder12,folder13,folder14,folder15,folder16
TITLE ""
FILE "1200_sec03_0774_0782.mp3" MP3
  TRACK 01 AUDIO
    TITLE "0:"
    INDEX 01 00:00:00
  TRACK 02 AUDIO
    TITLE "16:cjc034_06759"
    INDEX 01 00:00:19
  TRACK 03 AUDIO
    TITLE "0:"
    INDEX 01 00:03:27
  TRACK 04 AUDIO
    TITLE "12:cjc034_06760"
    INDEX 01 00:04:29
  TRACK 05 AUDIO
    TITLE "0:"
    INDEX 01 00:05:46
  TRACK 06 AUDIO
    TITLE "13:cjc034_06761"
    INDEX 01 00:06:06
  TRACK 07 AUDIO
    TITLE "0:"
    INDEX 01 00:07:33
  TRACK 08 AUDIO
    TITLE "14:cjc034_06762"
    INDEX 01 00:07:64
  TRACK 09 AUDIO
    TITLE "0:"
    INDEX 01 00:09:06
  TRACK 10 AUDIO
    TITLE "15:cjc034_06763"
    INDEX 01 00:09:44
  TRACK 11 AUDIO
    TITLE "0:"
    INDEX 01 00:13:47
  TRACK 12 AUDIO
    TITLE "12:cjc034_06764"
    INDEX 01 00:15:05
  TRACK 13 AUDIO
    TITLE "0:"
    INDEX 01 00:16:26
  TRACK 14 AUDIO
    TITLE "13:cjc034_06765"
    INDEX 01 00:16:59
  TRACK 15 AUDIO
    TITLE "0:"
    INDEX 01 00:19:28
  TRACK 16 AUDIO
    TITLE "14:cjc034_06766"
    INDEX 01 00:19:60
  TRACK 17 AUDIO
    TITLE "0:"
    INDEX 01 00:21:04
  TRACK 18 AUDIO
    TITLE "15:cjc034_06767"
    INDEX 01 00:21:43
  TRACK 19 AUDIO
    TITLE "0:"
    INDEX 01 00:25:05
  TRACK 20 AUDIO
    TITLE "12:cjc034_06768"
    INDEX 01 00:26:40
  TRACK 21 AUDIO
    TITLE "0:"
    INDEX 01 00:27:61
  TRACK 22 AUDIO
    TITLE "13:cjc034_06769"
    INDEX 01 00:28:21
  TRACK 23 AUDIO
    TITLE "0:"
    INDEX 01 00:29:25
  TRACK 24 AUDIO
    TITLE "14:cjc034_06770"
    INDEX 01 00:29:60
  TRACK 25 AUDIO
    TITLE "0:"
    INDEX 01 00:31:06
  TRACK 26 AUDIO
    TITLE "15:cjc034_06771"
    INDEX 01 00:31:39
  TRACK 27 AUDIO
    TITLE "0:"
    INDEX 01 00:35:23
  TRACK 28 AUDIO
    TITLE "12:cjc034_06772"
    INDEX 01 00:36:58
  TRACK 29 AUDIO
    TITLE "0:"
    INDEX 01 00:37:73
  TRACK 30 AUDIO
    TITLE "13:cjc034_06773"
    INDEX 01 00:38:33
  TRACK 31 AUDIO
    TITLE "0:"
    INDEX 01 00:39:56
  TRACK 32 AUDIO
    TITLE "14:cjc034_06774"
    INDEX 01 00:40:15
  TRACK 33 AUDIO
    TITLE "0:"
    INDEX 01 00:41:30
  TRACK 34 AUDIO
    TITLE "15:cjc034_06775"
    INDEX 01 00:41:65
  TRACK 35 AUDIO
    TITLE "0:"
    INDEX 01 00:45:33
  TRACK 36 AUDIO
    TITLE "12:cjc034_06776"
    INDEX 01 00:46:72
  TRACK 37 AUDIO
    TITLE "0:"
    INDEX 01 00:48:24
  TRACK 38 AUDIO
    TITLE "13:cjc034_06777"
    INDEX 01 00:48:59
  TRACK 39 AUDIO
    TITLE "0:"
    INDEX 01 00:51:44
  TRACK 40 AUDIO
    TITLE "14:cjc034_06778"
    INDEX 01 00:52:08
  TRACK 41 AUDIO
    TITLE "0:"
    INDEX 01 00:53:35
  TRACK 42 AUDIO
    TITLE "15:cjc034_06779"
    INDEX 01 00:53:68
  TRACK 43 AUDIO
    TITLE "0:"
    INDEX 01 00:57:60
  TRACK 44 AUDIO
    TITLE "12:cjc034_06780"
    INDEX 01 00:59:18
  TRACK 45 AUDIO
    TITLE "0:"
    INDEX 01 01:00:15
  TRACK 46 AUDIO
    TITLE "13:cjc034_06781"
    INDEX 01 01:00:49
  TRACK 47 AUDIO
    TITLE "0:"
    INDEX 01 01:02:69
  TRACK 48 AUDIO
    TITLE "14:cjc034_06782"
    INDEX 01 01:03:26
  TRACK 49 AUDIO
    TITLE "0:"
    INDEX 01 01:04:23
  TRACK 50 AUDIO
    TITLE "15:cjc034_06783"
    INDEX 01 01:04:58
  TRACK 51 AUDIO
    TITLE "0:"
    INDEX 01 01:08:66
  TRACK 52 AUDIO
    TITLE "16:cjc034_06784"
    INDEX 01 01:10:47
  TRACK 53 AUDIO
    TITLE "0:"
    INDEX 01 01:16:03
  TRACK 54 AUDIO
    TITLE "12:cjc034_06785"
    INDEX 01 01:17:04
  TRACK 55 AUDIO
    TITLE "0:"
    INDEX 01 01:18:23
  TRACK 56 AUDIO
    TITLE "13:cjc034_06786"
    INDEX 01 01:18:53
  TRACK 57 AUDIO
    TITLE "0:"
    INDEX 01 01:19:56
  TRACK 58 AUDIO
    TITLE "14:cjc034_06787"
    INDEX 01 01:20:12
  TRACK 59 AUDIO
    TITLE "0:"
    INDEX 01 01:21:27
  TRACK 60 AUDIO
    TITLE "15:cjc034_06788"
    INDEX 01 01:21:59
  TRACK 61 AUDIO
    TITLE "0:"
    INDEX 01 01:25:27
  TRACK 62 AUDIO
    TITLE "12:cjc034_06789"
    INDEX 01 01:26:66
  TRACK 63 AUDIO
    TITLE "0:"
    INDEX 01 01:27:73
  TRACK 64 AUDIO
    TITLE "13:cjc034_06790"
    INDEX 01 01:28:29
  TRACK 65 AUDIO
    TITLE "0:"
    INDEX 01 01:29:29
  TRACK 66 AUDIO
    TITLE "14:cjc034_06791"
    INDEX 01 01:29:66
  TRACK 67 AUDIO
    TITLE "0:"
    INDEX 01 01:30:73
  TRACK 68 AUDIO
    TITLE "15:cjc034_06792"
    INDEX 01 01:31:36
  TRACK 69 AUDIO
    TITLE "0:"
    INDEX 01 01:34:59
  TRACK 70 AUDIO
    TITLE "12:cjc034_06793"
    INDEX 01 01:36:17
  TRACK 71 AUDIO
    TITLE "0:"
    INDEX 01 01:37:56
  TRACK 72 AUDIO
    TITLE "13:cjc034_06794"
    INDEX 01 01:38:14
  TRACK 73 AUDIO
    TITLE "0:"
    INDEX 01 01:39:21
  TRACK 74 AUDIO
    TITLE "14:cjc034_06795"
    INDEX 01 01:39:53
  TRACK 75 AUDIO
    TITLE "0:"
    INDEX 01 01:41:16
  TRACK 76 AUDIO
    TITLE "15:cjc034_06796"
    INDEX 01 01:41:56
  TRACK 77 AUDIO
    TITLE "0:"
    INDEX 01 01:44:58
